<svg xmlns="http://www.w3.org/2000/svg" xmlns:xlink="http://www.w3.org/1999/xlink" width="348.537" height="423.65" viewBox="0 0 348.537 423.65">
  <defs>
    <linearGradient id="linear-gradient" x1="0.5" y1="0.028" x2="0.5" y2="1" gradientUnits="objectBoundingBox">
      <stop offset="0" stop-color="#b7bbc0" stop-opacity="0"/>
      <stop offset="1" stop-color="#727375"/>
    </linearGradient>
    <linearGradient id="linear-gradient-2" x1="0.513" y1="0.75" x2="0.5" y2="0.169" gradientUnits="objectBoundingBox">
      <stop offset="0" stop-color="#d4d8dd"/>
      <stop offset="1" stop-color="#ced2d6"/>
    </linearGradient>
    <linearGradient id="linear-gradient-3" x1="0.5" y1="1" x2="0.5" gradientUnits="objectBoundingBox">
      <stop offset="0" stop-color="#e7eaee"/>
      <stop offset="1" stop-color="#f7f9fb"/>
    </linearGradient>
    <linearGradient id="linear-gradient-4" x1="0.004" y1="0.332" x2="1" y2="0.668" gradientUnits="objectBoundingBox">
      <stop offset="0" stop-color="#17abd8"/>
      <stop offset="0.525" stop-color="#22aea7"/>
      <stop offset="1" stop-color="#2cb17a"/>
    </linearGradient>
    <linearGradient id="linear-gradient-5" x1="0.017" y1="0.365" x2="1" y2="0.639" gradientUnits="objectBoundingBox">
      <stop offset="0" stop-color="#097595"/>
      <stop offset="1" stop-color="#2cb17a"/>
    </linearGradient>
    <linearGradient id="linear-gradient-6" x1="0.004" y1="0.333" x2="1" y2="0.667" gradientUnits="objectBoundingBox">
      <stop offset="0" stop-color="#17abd8"/>
      <stop offset="1" stop-color="#2cb17a"/>
    </linearGradient>
    <linearGradient id="linear-gradient-7" y1="0.825" y2="0.172" xlink:href="#linear-gradient-3"/>
    <linearGradient id="linear-gradient-8" x1="0.5" x2="0.5" y2="1" gradientUnits="objectBoundingBox">
      <stop offset="0" stop-color="#dadadb" stop-opacity="0"/>
      <stop offset="1" stop-color="#e0e1e2"/>
    </linearGradient>
    <linearGradient id="linear-gradient-17" x1="0.5" y1="0.83" x2="0.5" y2="0.184" gradientUnits="objectBoundingBox">
      <stop offset="0" stop-color="#c3c6ca"/>
      <stop offset="1" stop-color="#e4e7ea"/>
    </linearGradient>
    <linearGradient id="linear-gradient-18" x1="0.5" x2="0.5" y2="1" gradientUnits="objectBoundingBox">
      <stop offset="0" stop-color="#dadadb" stop-opacity="0"/>
      <stop offset="1" stop-color="#767d8a"/>
    </linearGradient>
    <linearGradient id="linear-gradient-30" x1="0.076" x2="0.927" y2="1" gradientUnits="objectBoundingBox">
      <stop offset="0" stop-color="#2f4e83"/>
      <stop offset="1" stop-color="#15264c"/>
    </linearGradient>
    <linearGradient id="linear-gradient-32" x1="0.521" y1="0.675" x2="0.5" y2="0.306" gradientUnits="objectBoundingBox">
      <stop offset="0" stop-color="#e7eaee"/>
      <stop offset="1" stop-color="#fff"/>
    </linearGradient>
    <linearGradient id="linear-gradient-33" x1="1" y1="1" x2="1" gradientUnits="objectBoundingBox">
      <stop offset="0" stop-color="#7a4eec" stop-opacity="0"/>
      <stop offset="1" stop-color="#17abd8"/>
    </linearGradient>
    <linearGradient id="linear-gradient-34" y1="0" y2="1" xlink:href="#linear-gradient-33"/>
    <linearGradient id="linear-gradient-36" x1="0.422" x2="0.565" y2="0.414" xlink:href="#linear-gradient-33"/>
    <linearGradient id="linear-gradient-37" x1="0.418" x2="0.568" y2="0.414" xlink:href="#linear-gradient-33"/>
    <linearGradient id="linear-gradient-38" y1="0.5" x2="1" y2="0.5" gradientUnits="objectBoundingBox">
      <stop offset="0" stop-color="#7a4eec"/>
      <stop offset="1" stop-color="#17abd8"/>
    </linearGradient>
    <linearGradient id="linear-gradient-39" y1="0.5" x2="1" y2="0.5" gradientUnits="objectBoundingBox">
      <stop offset="0" stop-color="#a887fd"/>
      <stop offset="1" stop-color="#78dffe"/>
    </linearGradient>
    <linearGradient id="linear-gradient-41" x1="0.004" y1="0.352" y2="0.648" xlink:href="#linear-gradient-6"/>
    <linearGradient id="linear-gradient-42" x1="0.004" y1="0.323" x2="1" y2="0.677" gradientUnits="objectBoundingBox">
      <stop offset="0" stop-color="#42bbe0"/>
      <stop offset="1" stop-color="#78e8b9"/>
    </linearGradient>
    <linearGradient id="linear-gradient-43" x1="0.004" y1="0.361" y2="0.639" xlink:href="#linear-gradient-6"/>
    <linearGradient id="linear-gradient-44" x1="0.004" y1="0.333" x2="1" y2="0.667" gradientUnits="objectBoundingBox">
      <stop offset="0" stop-color="#53d7ff"/>
      <stop offset="1" stop-color="#78e8b9"/>
    </linearGradient>
    <linearGradient id="linear-gradient-45" x1="0.004" y1="0.668" y2="0.332" xlink:href="#linear-gradient-6"/>
    <linearGradient id="linear-gradient-46" y1="0.667" x2="0.882" y2="0.333" gradientUnits="objectBoundingBox">
      <stop offset="0" stop-color="#fff" stop-opacity="0.016"/>
      <stop offset="1" stop-color="#fff"/>
    </linearGradient>
    <linearGradient id="linear-gradient-47" x1="0.41" y1="0.667" x2="1" y2="0.459" gradientUnits="objectBoundingBox">
      <stop offset="0" stop-color="#fff" stop-opacity="0"/>
      <stop offset="1" stop-color="#fff" stop-opacity="0"/>
    </linearGradient>
  </defs>
  <g id="Out-of-the-box" transform="translate(0 -0.465)">
    <path id="Floor-lines" d="M160.332,375.935l.5.864-25.747,15.04-1.04,15.005-25.912,14.951c.389.611.162,1.322-.682,1.812a4.648,4.648,0,0,1-4.219,0,1.294,1.294,0,0,1-.014-2.447,4.674,4.674,0,0,1,4.106-.058l25.76-14.862,1.04-15,.229-.133Zm-56.4,45.638a.861.861,0,0,0,.009,1.629,3.1,3.1,0,0,0,2.807,0,.858.858,0,0,0-.01-1.621A3.1,3.1,0,0,0,103.931,421.573Zm63.9-41.275.5.865L144.389,395.03l19.759,10.749-14.434,8.542c.657.661.5,1.521-.468,2.085a4.664,4.664,0,0,1-4.225,0,1.3,1.3,0,0,1-.014-2.448,4.737,4.737,0,0,1,3.74-.228l13.376-7.915-19.775-10.759Zm14.808-4.739,18.819,11,3.632,20.342,10.036,6.624a4.741,4.741,0,0,1,3.729.233,1.294,1.294,0,0,1,.013,2.448,4.667,4.667,0,0,1-4.225,0c-.989-.571-1.145-1.445-.467-2.109l-9.994-6.6-3.626-20.309-18.421-10.766Zm-36.92,38.81a.861.861,0,0,0,.009,1.63,3.106,3.106,0,0,0,2.813,0,.861.861,0,0,0-.009-1.63A3.106,3.106,0,0,0,145.716,414.367Zm69.624-.2a.859.859,0,0,0,0,1.626,3.106,3.106,0,0,0,2.813,0,.86.86,0,0,0-.016-1.626A3.085,3.085,0,0,0,215.34,414.167Zm-4.5-55.068,24.315,14.062,15.087,16.024,35.589,20.826a4.729,4.729,0,0,1,3.931.15,1.294,1.294,0,0,1,.014,2.448,4.661,4.661,0,0,1-4.219,0c-.913-.527-1.116-1.313-.611-1.951l-35.384-20.73L234.473,373.9l-24.137-13.937Zm-16.344,9.534,9.6,5.438,8.306,22.516,22.544,12.841a4.745,4.745,0,0,1,3.781.213,1.294,1.294,0,0,1,.013,2.448,4.661,4.661,0,0,1-4.225,0c-.961-.555-1.136-1.395-.524-2.051l-22.4-12.763-.063-.171-8.242-22.342L194,369.5Zm91.751,41.936a.86.86,0,0,0,.015,1.626,3.105,3.105,0,0,0,2.807,0,.861.861,0,0,0-.01-1.63A3.1,3.1,0,0,0,286.242,410.57Zm-51.036-.52a.861.861,0,0,0,.009,1.63,3.106,3.106,0,0,0,2.813,0,.862.862,0,0,0-.009-1.63A3.106,3.106,0,0,0,235.206,410.05Zm-101.7-49.737.5.865L109.96,375.064l-6.019,12.688L68.595,408.414c.462.628.257,1.381-.624,1.893a4.663,4.663,0,0,1-4.226,0,1.294,1.294,0,0,1-.014-2.447,4.694,4.694,0,0,1,4.011-.106l35.428-20.709,6.02-12.692.135-.077Zm67.283,4.649,26.17,15.286,4.628,12.365,25.159,14.611a4.7,4.7,0,0,1,3.962.129,1.294,1.294,0,0,1,.013,2.447,4.661,4.661,0,0,1-4.225,0c-.9-.521-1.107-1.291-.621-1.925l-25.1-14.577-4.627-12.367-25.863-15.107ZM64.44,408.269a.861.861,0,0,0,.009,1.629,3.1,3.1,0,0,0,2.813,0,.86.86,0,0,0-.016-1.626A3.1,3.1,0,0,0,64.44,408.269Zm192.76-.5a.859.859,0,0,0,0,1.625,3.1,3.1,0,0,0,2.813,0c.774-.449.763-1.176-.016-1.625A3.085,3.085,0,0,0,257.2,407.767ZM147.622,368.532l.5.864L122.269,384.5l-8.916,15.2-5.119,3.03c.37.608.14,1.31-.69,1.793a4.661,4.661,0,0,1-4.225,0,1.294,1.294,0,0,1-.014-2.447,4.681,4.681,0,0,1,4.139-.041l5.178-3.064,8.916-15.208.114-.066Zm-43.608,33.958a.861.861,0,0,0,.009,1.629,3.09,3.09,0,0,0,2.807,0,.857.857,0,0,0-.01-1.622A3.1,3.1,0,0,0,104.013,402.491Zm72.754-23.5,6.9,4.264L170.1,391.126l16.193,10.114a4.742,4.742,0,0,1,3.69.247,1.294,1.294,0,0,1,.013,2.447,4.661,4.661,0,0,1-4.225,0c-1-.575-1.147-1.457-.452-2.123L168.158,391.1l13.563-7.865-5.48-3.384Zm9.695,22.9a.861.861,0,0,0,.009,1.629,3.1,3.1,0,0,0,2.807,0,.859.859,0,0,0,0-1.625A3.1,3.1,0,0,0,186.462,401.9ZM112.91,348.317l.5.866L79.019,369.139l-19-.3L12.554,396.475c.3.586.047,1.245-.747,1.706a4.661,4.661,0,0,1-4.225,0,1.294,1.294,0,0,1-.014-2.447,4.663,4.663,0,0,1,4.226,0l.022.013L59.76,367.83l19,.3ZM8.284,396.147a.859.859,0,0,0,0,1.625,3.1,3.1,0,0,0,2.813,0,.861.861,0,0,0-.009-1.629A3.1,3.1,0,0,0,8.284,396.147Zm212.431-42.818c.355.2,5.577,3.218,11.14,6.43l.778.449.78.45.951.549.631.364,10.461,6.042,11.849,2.463,35.473,20.736a4.738,4.738,0,0,1,3.742.228,1.291,1.291,0,0,1,.008,2.444,4.651,4.651,0,0,1-4.219,0c-.975-.562-1.141-1.419-.5-2.079L256.87,370.983l-11.845-2.463-10.634-6.141-.613-.354-.766-.442-1.27-.733-.632-.365c-5.469-3.158-10.542-6.087-10.89-6.285ZM293,391.449a.861.861,0,0,0,.009,1.629,3.1,3.1,0,0,0,2.806,0,.86.86,0,0,0,0-1.626A3.1,3.1,0,0,0,293,391.449ZM118.61,351.635l.5.867L108.9,358.377l-5.233,13.961L81.191,385.008c.279.581.028,1.231-.757,1.688a4.661,4.661,0,0,1-4.219,0,1.294,1.294,0,0,1-.014-2.448,4.663,4.663,0,0,1,4.226,0l.032.02,22.4-12.625,5.232-13.957ZM76.91,384.66a.861.861,0,0,0,.009,1.63,3.105,3.105,0,0,0,2.807,0,.86.86,0,0,0,0-1.626A3.106,3.106,0,0,0,76.91,384.66Zm158.135-39.689L268.32,364.28l19-.3.12.07,21.638,12.6a4.7,4.7,0,0,1,3.953.133,1.294,1.294,0,0,1,.013,2.447,4.661,4.661,0,0,1-4.225,0c-.906-.522-1.109-1.3-.615-1.933l-21.147-12.316-19,.3-.12-.07-33.395-19.378Zm74.472,32.223a.859.859,0,0,0,0,1.625,3.1,3.1,0,0,0,2.813,0,.861.861,0,0,0-.009-1.629A3.1,3.1,0,0,0,309.517,377.194Zm-205.186-33.87.505.864L78.344,359.662l-36.119.82-19.5,11.437c.524.641.328,1.429-.584,1.959a4.648,4.648,0,0,1-4.219,0,1.294,1.294,0,0,1-.014-2.447,4.72,4.72,0,0,1,3.922-.153l20.112-11.8,36.12-.819ZM18.617,371.845a.861.861,0,0,0,.009,1.629,3.1,3.1,0,0,0,2.807,0,.859.859,0,0,0,0-1.625A3.1,3.1,0,0,0,18.617,371.845Zm224.994-31.871,25.4,14.839,36.121.82,5.266,3.116a4.717,4.717,0,0,1,3.884.164,1.291,1.291,0,0,1,.02,2.444,4.661,4.661,0,0,1-4.225,0c-.921-.532-1.116-1.332-.579-1.977l-4.65-2.753-36.118-.82-.111-.065-25.515-14.9Zm67.17,19.349a.859.859,0,0,0,0,1.625,3.1,3.1,0,0,0,2.813,0,.859.859,0,0,0-.016-1.625A3.1,3.1,0,0,0,310.78,359.323ZM92.858,336.646l.51.859L76.533,347.5l-.127.005-24.249.869-10.383,5.685-11.73.085a1.742,1.742,0,0,1-.91,1.087,5.054,5.054,0,0,1-4.576,0c-1.264-.729-1.271-1.917-.015-2.646a5.036,5.036,0,0,1,4.57,0,2.27,2.27,0,0,1,.673.564l11.73-.084,10.37-5.678.118-.005,24.239-.868Zm162.5-3.188,15.366,9.127,24.466.939,17.009,9.568,24,.087a2.222,2.222,0,0,1,.5-.391,4.663,4.663,0,0,1,4.226,0,1.294,1.294,0,0,1,.013,2.447,4.661,4.661,0,0,1-4.225,0,1.6,1.6,0,0,1-.866-1.057l-23.912-.087-.113-.064-16.911-9.514-24.479-.938-.109-.066-15.475-9.192ZM25.251,352.986a.967.967,0,0,0,.01,1.828,3.479,3.479,0,0,0,3.157,0,.966.966,0,0,0-.011-1.828A3.486,3.486,0,0,0,25.251,352.986Zm312.159.212a.861.861,0,0,0,.009,1.629,3.1,3.1,0,0,0,2.806,0,.86.86,0,0,0,0-1.626A3.106,3.106,0,0,0,337.41,353.2ZM81.583,330.076l.5.863-9.606,5.6-.16-.014-29.21-2.814-11.237,6.44c.319.593.075,1.264-.729,1.731a4.651,4.651,0,0,1-4.219,0,1.3,1.3,0,0,1-.014-2.448,4.665,4.665,0,0,1,4.2,0l11.775-6.747.159.015,29.208,2.813ZM27.62,339.843a.861.861,0,0,0,.009,1.63,3.106,3.106,0,0,0,2.807,0,.858.858,0,0,0-.01-1.622A3.1,3.1,0,0,0,27.62,339.843ZM266.2,326.787l8.455,4.882,36.12.82,5.041,2.982a4.734,4.734,0,0,1,3.858.182,1.294,1.294,0,0,1,.013,2.447,4.661,4.661,0,0,1-4.225,0c-.94-.543-1.128-1.359-.562-2.008l-4.408-2.609-36.114-.82-8.677-5.011Zm49.956,9.275a.861.861,0,0,0,.009,1.629,3.1,3.1,0,0,0,2.813,0,.861.861,0,0,0-.009-1.629A3.1,3.1,0,0,0,316.161,336.062ZM26.341,302.9c.94.543,1.128,1.358.563,2.008l4.408,2.609,36.114.82,8.677,5.011-.5.865-8.455-4.882-36.12-.82-5.041-2.982a4.734,4.734,0,0,1-3.858-.182,1.294,1.294,0,0,1-.013-2.447A4.661,4.661,0,0,1,26.341,302.9Zm301.972-3.67a1.294,1.294,0,0,1,.014,2.447,4.665,4.665,0,0,1-4.2.005l-11.776,6.747-.158-.015L282.983,305.6l-9.328,5.435-.5-.863,9.607-5.6.16.015,29.21,2.813,11.237-6.44c-.318-.592-.074-1.264.729-1.731A4.651,4.651,0,0,1,328.313,299.234ZM5.092,285.768a1.6,1.6,0,0,1,.866,1.057l23.912.087.113.064,16.911,9.514,24.479.938.109.066,15.475,9.192-.51.86-15.366-9.127-24.466-.939-17.009-9.568-24-.087a2.22,2.22,0,0,1-.5.391,4.661,4.661,0,0,1-4.225,0,1.294,1.294,0,0,1-.014-2.447A4.661,4.661,0,0,1,5.092,285.768Zm17.732,17.545a.861.861,0,0,0,.009,1.629,3.1,3.1,0,0,0,2.813,0,.861.861,0,0,0-.009-1.629A3.1,3.1,0,0,0,22.824,303.313Zm307.857-17.421c1.264.73,1.271,1.917.015,2.646a5.036,5.036,0,0,1-4.57,0,2.273,2.273,0,0,1-.672-.563l-11.731.083-10.369,5.678-.119,0L279,294.609l-16.617,9.86-.511-.859,16.837-9.992.127,0,24.249-.869,10.383-5.685,11.73-.085a1.74,1.74,0,0,1,.911-1.086A5.051,5.051,0,0,1,330.681,285.892ZM324.8,299.646a.858.858,0,0,0,.009,1.622,3.1,3.1,0,0,0,2.806,0,.861.861,0,0,0-.009-1.629A3.1,3.1,0,0,0,324.8,299.646Zm-293.075-20c.921.532,1.116,1.332.579,1.977l4.649,2.753,36.118.82.111.065,25.515,14.9-.5.864-25.4-14.839-36.121-.82-5.265-3.116a4.716,4.716,0,0,1-3.885-.164,1.291,1.291,0,0,1-.02-2.444A4.661,4.661,0,0,1,31.728,279.647Zm305.589-12.415a1.294,1.294,0,0,1,.014,2.448,4.727,4.727,0,0,1-3.92.154L313.3,281.627l-36.12.819-26.27,15.345-.5-.863,26.493-15.476,36.118-.819,19.5-11.436c-.525-.641-.33-1.431.583-1.961A4.651,4.651,0,0,1,337.316,267.232ZM32.991,261.776c.906.522,1.109,1.3.614,1.933l21.148,12.316,19-.305.12.07,33.395,19.378-.5.865L73.487,276.724l-19,.305-.12-.07-21.639-12.6a4.7,4.7,0,0,1-3.952-.134,1.294,1.294,0,0,1-.013-2.447A4.661,4.661,0,0,1,32.991,261.776Zm314.665-18.842a1.294,1.294,0,0,1,.014,2.447,4.661,4.661,0,0,1-4.225,0l-.022-.014-47.945,27.917-19-.3L242.328,292.8l-.5-.865,34.394-19.957,18.995.3,47.469-27.64c-.3-.586-.047-1.245.746-1.707A4.661,4.661,0,0,1,347.656,242.934Zm-68.632,11.482a1.294,1.294,0,0,1,.014,2.447,4.663,4.663,0,0,1-4.226,0l-.033-.02-22.4,12.625-5.232,13.957-10.523,6.056-.5-.867,10.212-5.876,5.233-13.961,22.474-12.668c-.281-.581-.03-1.232.756-1.69A4.664,4.664,0,0,1,279.023,254.417Zm47.8,31.885a.966.966,0,0,0,.011,1.829,3.486,3.486,0,0,0,3.156,0,.967.967,0,0,0-.01-1.828A3.479,3.479,0,0,0,326.82,286.3ZM1.582,286.18a.86.86,0,0,0,0,1.626,3.1,3.1,0,0,0,2.812,0,.861.861,0,0,0-.009-1.629A3.1,3.1,0,0,0,1.582,286.18ZM49.5,247.516c.974.562,1.14,1.419.5,2.079l34.942,20.425,11.845,2.463,10.485,6.055.762.44h0l.766.442h0l.767.443h0l.766.442h0l.762.44c5.316,3.07,10.157,5.864,10.5,6.058l-.495.87c-.751-.429-23.3-13.454-24.74-14.285L84.5,270.927,49.031,250.191a4.741,4.741,0,0,1-3.743-.228,1.291,1.291,0,0,1-.007-2.443A4.648,4.648,0,0,1,49.5,247.516Zm-21.289,32.54a.86.86,0,0,0,.016,1.626,3.1,3.1,0,0,0,2.8,0,.86.86,0,0,0,0-1.626A3.1,3.1,0,0,0,28.211,280.056ZM56.254,228.4c.914.528,1.116,1.314.61,1.952l35.384,20.729L107.335,267.1l24.137,13.937-.5.865-24.315-14.062L91.57,251.818l-35.59-20.825a4.729,4.729,0,0,1-3.93-.15,1.294,1.294,0,0,1-.014-2.448A4.66,4.66,0,0,1,56.254,228.4Zm235.239,2.409a1.294,1.294,0,0,1,.014,2.448,4.7,4.7,0,0,1-4.011.106L252.068,254.07l-6.02,12.692-.135.077L221.729,280.8l-.5-.865,24.049-13.887,6.019-12.688L286.644,232.7c-.462-.628-.257-1.381.624-1.893A4.667,4.667,0,0,1,291.493,230.808ZM85.308,231.2c.9.521,1.108,1.291.622,1.925l25.1,14.577,4.627,12.367,25.863,15.107-.5.863-26.17-15.286-4.628-12.365-25.16-14.611a4.7,4.7,0,0,1-3.961-.13,1.294,1.294,0,0,1-.013-2.447A4.661,4.661,0,0,1,85.308,231.2Zm166.612,5.384a1.294,1.294,0,0,1,.014,2.447,4.684,4.684,0,0,1-4.138.042l-5.179,3.063L233.7,257.346l-.113.065-25.97,15.171-.505-.863,25.858-15.106,8.916-15.2L247,238.38c-.37-.608-.14-1.311.69-1.793A4.661,4.661,0,0,1,251.92,236.587ZM107.3,228.915c.961.555,1.136,1.395.524,2.051l22.4,12.763.063.171,8.242,22.342,9.282,5.259-.493.869-9.6-5.438-8.306-22.516-22.543-12.841a4.745,4.745,0,0,1-3.782-.212,1.294,1.294,0,0,1-.013-2.448A4.661,4.661,0,0,1,107.3,228.915Zm226.51,38.73a.86.86,0,0,0,0,1.626,3.106,3.106,0,0,0,2.813,0,.861.861,0,0,0-.009-1.63A3.106,3.106,0,0,0,333.806,267.645ZM127.168,224.8c.989.571,1.146,1.445.467,2.109l9.994,6.6,3.626,20.309,18.421,10.766-.505.863-18.819-11-3.632-20.342-10.034-6.624a4.741,4.741,0,0,1-3.73-.232,1.294,1.294,0,0,1-.013-2.448A4.667,4.667,0,0,1,127.168,224.8ZM252,217.5a1.294,1.294,0,0,1,.014,2.448,4.678,4.678,0,0,1-4.107.057L222.15,234.871l-1.04,15-26.2,15.307-.5-.863,25.747-15.041,1.04-15.005L247.1,219.321c-.389-.611-.163-1.322.682-1.813A4.648,4.648,0,0,1,252,217.5ZM29.474,262.185a.861.861,0,0,0,.009,1.629,3.1,3.1,0,0,0,2.807,0,.859.859,0,0,0,0-1.625A3.1,3.1,0,0,0,29.474,262.185ZM156.04,237.069c1,.576,1.147,1.458.451,2.124l17.158,10.715-13.563,7.865,5.48,3.384-.526.852-6.9-4.264,13.571-7.868-16.2-10.113a4.742,4.742,0,0,1-3.688-.248,1.294,1.294,0,0,1-.013-2.447A4.661,4.661,0,0,1,156.04,237.069Zm54.177-12.359a1.294,1.294,0,0,1,.014,2.447,4.729,4.729,0,0,1-3.74.228L193.116,235.3l19.774,10.759-25.479,14.76-.5-.865,23.938-13.867L191.09,235.337l14.433-8.544c-.657-.661-.5-1.52.469-2.083A4.661,4.661,0,0,1,210.217,224.71Zm65.3,30.119a.86.86,0,0,0,0,1.626,3.1,3.1,0,0,0,2.813,0,.861.861,0,0,0-.009-1.629A3.1,3.1,0,0,0,275.513,254.829Zm-229.524-6.9a.86.86,0,0,0,0,1.626,3.1,3.1,0,0,0,2.813,0,.861.861,0,0,0-.009-1.629A3.1,3.1,0,0,0,45.989,247.928Zm298.15-4.585a.861.861,0,0,0,.01,1.629,3.1,3.1,0,0,0,2.806,0,.86.86,0,0,0,0-1.626A3.1,3.1,0,0,0,344.139,243.343Zm-191.61-5.861a.859.859,0,0,0,0,1.625,3.1,3.1,0,0,0,2.813,0,.861.861,0,0,0-.009-1.629A3.1,3.1,0,0,0,152.529,237.482Zm95.88-.482a.857.857,0,0,0,.01,1.622,3.1,3.1,0,0,0,2.806,0,.861.861,0,0,0-.009-1.629A3.087,3.087,0,0,0,248.409,237ZM81.791,231.612c-.773.449-.763,1.176.016,1.626a3.088,3.088,0,0,0,2.8,0,.859.859,0,0,0,0-1.625A3.1,3.1,0,0,0,81.791,231.612Zm206.185-.395a.86.86,0,0,0,.016,1.626,3.1,3.1,0,0,0,2.806,0,.861.861,0,0,0-.009-1.63A3.106,3.106,0,0,0,287.976,231.217Zm-184.2-1.894a.862.862,0,0,0,.009,1.63,3.106,3.106,0,0,0,2.813,0,.861.861,0,0,0-.009-1.63A3.106,3.106,0,0,0,103.779,229.324Zm-51.036-.52a.861.861,0,0,0,.01,1.63,3.106,3.106,0,0,0,2.813,0,.86.86,0,0,0-.016-1.626A3.105,3.105,0,0,0,52.743,228.8Zm70.908-3.594a.86.86,0,0,0,.016,1.626,3.085,3.085,0,0,0,2.8,0,.859.859,0,0,0,0-1.626A3.106,3.106,0,0,0,123.651,225.21Zm83.049-.092a.861.861,0,0,0,.009,1.629,3.106,3.106,0,0,0,2.813,0,.861.861,0,0,0-.009-1.629A3.1,3.1,0,0,0,206.7,225.119Zm41.792-7.2a.858.858,0,0,0,.009,1.622,3.1,3.1,0,0,0,2.806,0,.861.861,0,0,0-.009-1.63A3.1,3.1,0,0,0,248.492,217.917Z" fill-rule="evenodd" opacity="0.401" fill="url(#linear-gradient)"/>
    <g id="Box" transform="translate(20.2 107.188)">
      <path id="_-far-Left-side" data-name="-far-Left-side" d="M51.2,99.13l106.17-61.7-.248,118.888-106.17,61.7Z" fill-rule="evenodd" fill="url(#linear-gradient-2)"/>
      <path id="far-Right-side-" d="M157.372,37.431,257.577,95.284l-.248,118.888L156.24,156.639Z" fill-rule="evenodd" fill="url(#linear-gradient-3)"/>
      <g id="Profile-card" transform="translate(131.578 146.306) rotate(-33)">
        <path id="Fill-1" d="M41.595,33.47c.474.274.477.712.005.986a1.873,1.873,0,0,1-1.7,0L31.5,29.609a.521.521,0,0,1-.005-.985,1.873,1.873,0,0,1,1.7,0Z" fill="#fff" fill-rule="evenodd"/>
        <path id="Fill-3" d="M42.285,38.631a.51.51,0,0,1,.005.965,1.838,1.838,0,0,1-1.667,0l-18-10.39a.511.511,0,0,1-.005-.966,1.84,1.84,0,0,1,1.667,0Z" fill="#fff" fill-rule="evenodd"/>
        <path id="Fill-5" d="M41.6,34.456c.471-.273.468-.711-.005-.986L33.2,28.623a1.875,1.875,0,0,0-1.7,0,.521.521,0,0,0,.005.986L39.9,34.456a1.873,1.873,0,0,0,1.7,0ZM40.624,39.6a1.84,1.84,0,0,0,1.667,0,.51.51,0,0,0,0-.965l-18-10.391a1.836,1.836,0,0,0-1.667,0,.51.51,0,0,0,.005.965l18,10.391ZM60.107,17.909c-4.882-2.819-12.778-2.819-17.629,0a6.936,6.936,0,0,0-3.457,3.916c-.038.152-.076.308-.1.458-.357,2.085.849,4.245,3.612,5.84A18.574,18.574,0,0,0,52.625,30.2c.262-.012.533-.034.79-.059a16.713,16.713,0,0,0,6.755-2.013c4.851-2.819,4.825-7.393-.062-10.215ZM90.4,23.951a.825.825,0,0,1,.009,1.562L44.184,52.376a2.971,2.971,0,0,1-2.7,0L.562,28.748a.827.827,0,0,1-.009-1.563L46.778.323a2.977,2.977,0,0,1,2.7,0Z" fill-rule="evenodd" fill="url(#linear-gradient-4)"/>
        <path id="Fill-7" d="M56.532,19.987c1.594.921,1.6,2.414.018,3.334a6.34,6.34,0,0,1-5.752,0c-1.59-.918-1.6-2.411-.018-3.329a6.342,6.342,0,0,1,5.752,0" fill="#5ac6e7" fill-rule="evenodd"/>
        <path id="Fill-9" d="M50.8,23.319a6.34,6.34,0,0,0,5.752,0c1.584-.92,1.576-2.413-.018-3.334a6.342,6.342,0,0,0-5.752,0c-1.58.918-1.571,2.411.018,3.329m9.308-5.409c4.887,2.822,4.913,7.395.062,10.214a16.713,16.713,0,0,1-6.755,2.013c-.257.025-.528.047-.79.059,1-2.149.022-4.556-2.909-6.247a17.216,17.216,0,0,0-10.8-1.665c.025-.149.063-.306.1-.458a6.938,6.938,0,0,1,3.457-3.916c4.851-2.819,12.747-2.819,17.629,0" fill="#fff" fill-rule="evenodd"/>
        <path id="Fill-11" d="M49.716,23.948c2.931,1.692,3.91,4.1,2.909,6.248a18.575,18.575,0,0,1-10.094-2.072c-2.762-1.6-3.968-3.755-3.611-5.84a17.214,17.214,0,0,1,10.8,1.665" fill="#5ac6e7" fill-rule="evenodd"/>
      </g>
      <g id="Puzzle-piece" transform="translate(129.421 80.2) rotate(60)">
        <path id="Sides" d="M46.015,13.326v2.717h0l0,0L23.082,29.285l0,0-8.409-4.855c-.544-.314-1.5-.126-1.544.316A2.541,2.541,0,0,1,11.7,26.575a7.68,7.68,0,0,1-7.118-.093A2.262,2.262,0,0,1,3.3,24.27s-.006-.23-.009-.494l0-.268h0v-.247a2.213,2.213,0,0,1,.011-.235h0v-.939a2.537,2.537,0,0,0,1.285,1.676,7.677,7.677,0,0,0,7.118.094,2.541,2.541,0,0,0,1.425-1.828c.047-.441,1-.629,1.544-.316h0l8.409,4.855h0ZM0,13.243,8.42,18.1c.545.314.209.858-.557.886-.019,0-.038,0-.057,0h0l.614.355c.545.314.209.858-.557.885-.141,0-.281.014-.42.026h0L0,15.962ZM14.469,5.148a.682.682,0,0,0,.628.326,7.222,7.222,0,0,1,3.15.863c1.29.744,1.754,1.781,1.4,2.736a1.777,1.777,0,0,1-.046,1.363,3.121,3.121,0,0,0-1.358-1.38,7.246,7.246,0,0,0-3.15-.863c-.458-.027-.721-.275-.628-.5h0V6.629a.233.233,0,0,1,0-.179h0Zm28.245-.111v.9a1.716,1.716,0,0,1,0,.571h0V7.18A2.225,2.225,0,0,1,41.45,9.4a6.572,6.572,0,0,1-2.875.874h0L37.6,9.707c-.544-.315-.208-.858.558-.885h0l.057,0L37.6,8.463c-.544-.314-.208-.858.558-.885a6.819,6.819,0,0,0,3.295-.9,2.512,2.512,0,0,0,1.264-1.641Z" fill-rule="evenodd" fill="url(#linear-gradient-5)"/>
        <path id="top" d="M13.126,22.029c.048-.441,1-.629,1.544-.316l8.409,4.855h0L46.015,13.326,37.6,8.463c-.545-.314-.208-.858.558-.885a6.809,6.809,0,0,0,3.295-.9C43.176,5.6,43.169,3.886,41.433,2.8a7.675,7.675,0,0,0-7.117-.094A2.54,2.54,0,0,0,32.89,4.539c-.047.441-1,.629-1.544.316L22.937,0h0L14.652,4.784c-.422.244-.151.655.445.69a7.218,7.218,0,0,1,3.15.863c2.11,1.218,2.029,3.218-.251,4.36a8.514,8.514,0,0,1-6.783-.031A2.926,2.926,0,0,1,9.48,8.724c-.062-.347-.773-.509-1.2-.263L0,13.243,8.42,18.1c.544.315.208.859-.558.886a6.819,6.819,0,0,0-3.295.9c-1.727,1.074-1.719,2.793.016,3.874a7.677,7.677,0,0,0,7.118.094A2.541,2.541,0,0,0,13.126,22.029Z" fill-rule="evenodd" fill="url(#linear-gradient-6)"/>
      </g>
      <g id="Left-side" transform="translate(50.954 100.129)">
        <path id="Path_4" data-name="Path 4" d="M.248,0,100.453,57.853l-.607,117.829L0,118.888Z" fill="url(#linear-gradient-7)"/>
        <g id="Lines-up">
          <g id="Group_4" data-name="Group 4" transform="translate(8.846 81.683)">
            <path id="Fill-1-2" data-name="Fill-1" d="M0,42.984H1V17.795H0Z" fill-rule="evenodd" fill="url(#linear-gradient-8)"/>
            <path id="Fill-2" d="M11.431,49.511h1v-35h-1Z" fill-rule="evenodd" fill="url(#linear-gradient-8)"/>
            <path id="Fill-3-2" data-name="Fill-3" d="M37.065,64.434h1V47.544h-1Z" fill-rule="evenodd" fill="url(#linear-gradient-8)"/>
            <path id="Fill-4" d="M78.854,88.71h1V71.819h-1Z" fill-rule="evenodd" fill="url(#linear-gradient-8)"/>
            <path id="Fill-5-2" data-name="Fill-5" d="M86.351,93.088h1V85.55h-1Z" fill-rule="evenodd" fill="url(#linear-gradient-8)"/>
            <path id="Fill-6" d="M31.27,61.191h1v-42h-1Z" fill-rule="evenodd" fill="url(#linear-gradient-8)"/>
            <path id="Fill-7-2" data-name="Fill-7" d="M66.133,81.286h1V49.5h-1Z" fill-rule="evenodd" fill="url(#linear-gradient-8)"/>
            <path id="Fill-8" d="M22.91,56.217h1v-56h-1Z" fill-rule="evenodd" fill="url(#linear-gradient-8)"/>
            <path id="Fill-9-2" data-name="Fill-9" d="M51.977,73.149h1v-67h-1Z" fill-rule="evenodd" fill="url(#linear-gradient-8)"/>
          </g>
        </g>
      </g>
      <g id="Right-side" transform="translate(150.48 95.283)">
        <path id="side-right" d="M.928,61.7,107.1,0l-.249,118.888L0,180.876Z" fill="url(#linear-gradient-17)"/>
        <g id="lines-up-2" data-name="lines-up" opacity="0.396">
          <g id="Group_5" data-name="Group 5" transform="translate(5.32 72.529)">
            <path id="Fill-1-3" data-name="Fill-1" d="M90.357,52.628h1v-19h-1Z" fill-rule="evenodd" fill="url(#linear-gradient-18)"/>
            <path id="Fill-2-2" data-name="Fill-2" d="M0,104.423H1V83.307H0Z" fill-rule="evenodd" fill="url(#linear-gradient-18)"/>
            <path id="Fill-3-3" data-name="Fill-3" d="M78.4,59.447h1v-59h-1Z" fill-rule="evenodd" fill="url(#linear-gradient-18)"/>
            <path id="Fill-4-2" data-name="Fill-4" d="M18.445,94.891h1V61.331h-1Z" fill-rule="evenodd" fill="url(#linear-gradient-18)"/>
            <path id="Fill-5-3" data-name="Fill-5" d="M23.686,91.067h1v-38h-1Z" fill-rule="evenodd" fill="url(#linear-gradient-18)"/>
            <path id="Fill-6-2" data-name="Fill-6" d="M66.585,66.125h1V41.988h-1Z" fill-rule="evenodd" fill="url(#linear-gradient-18)"/>
            <path id="Fill-7-3" data-name="Fill-7" d="M5.611,101.431h1v-71h-1Z" fill-rule="evenodd" fill="url(#linear-gradient-18)"/>
            <path id="Fill-8-2" data-name="Fill-8" d="M34,85.3h1V44.317H34Z" fill-rule="evenodd" fill="url(#linear-gradient-18)"/>
            <path id="Fill-9-3" data-name="Fill-9" d="M58.043,71.391h1V30.4h-1Z" fill-rule="evenodd" fill="url(#linear-gradient-18)"/>
            <path id="Fill-10" d="M45,79.649h1V14H45Z" fill-rule="evenodd" fill="url(#linear-gradient-18)"/>
          </g>
        </g>
      </g>
      <path id="Flap-far-left" d="M52.56,99.039,157.373,37.431,112.8.812,6.4,63.64Z" fill-rule="evenodd" fill="url(#linear-gradient-3)"/>
      <path id="Flap-far-right" d="M157.372,37.431,257.04,96.159,302.8,66.812,203.95,9.187Z" fill-rule="evenodd" fill="url(#linear-gradient-3)"/>
      <path id="Shadow-front-left-flap" d="M153,156.812l39.24,60.068,65.16-38.468.178-74.729Z" fill-rule="evenodd" opacity="0.081" fill="url(#linear-gradient-30)"/>
      <path id="Flap-left" d="M.6,138.812l99.729,58.081,51.079-39.91L51.228,99.129Z" fill="url(#linear-gradient-3)"/>
      <path id="Flap-right" d="M151.413,156.988l40.827,51.491L297.5,145.417l-39.92-50.135Z" fill-rule="evenodd" fill="url(#linear-gradient-32)"/>
    </g>
    <g id="line" transform="translate(167.654 0.598) rotate(-1)" opacity="0.132">
      <rect id="Rectangle" width="1.8" height="48.6" transform="translate(0 0.9)" fill="url(#linear-gradient-33)"/>
      <circle id="Oval" cx="1" cy="1" r="1" transform="translate(-0.1 -0.1)" fill="#17abd8"/>
    </g>
    <g id="line-2" data-name="line" transform="matrix(-0.766, -0.643, 0.643, -0.766, 323.168, 87.44)" opacity="0.265">
      <rect id="Rectangle-2" data-name="Rectangle" width="1.8" height="48.6" transform="translate(0 -49.5)" fill="url(#linear-gradient-34)"/>
      <circle id="Oval-2" data-name="Oval" cx="1" cy="1" r="1" transform="translate(-0.1 -1.9)" fill="#17abd8"/>
    </g>
    <g id="line-3" data-name="line" transform="matrix(0.857, -0.515, 0.515, 0.857, 74.843, 68.19)" opacity="0.265">
      <rect id="Rectangle-3" data-name="Rectangle" width="1.8" height="48.6" transform="translate(0 0.9)" fill="url(#linear-gradient-33)"/>
      <circle id="Oval-3" data-name="Oval" cx="1" cy="1" r="1" transform="translate(-0.1 -0.1)" fill="#17abd8"/>
    </g>
    <path id="Swirl" d="M112.531,160.541a.45.45,0,0,1-.181.61l-.339.192-.538.323c-.706.433-1.494.95-2.342,1.55a49.941,49.941,0,0,0-7.119,6.108c-5.508,5.723-9.158,12.337-10.091,19.8a16.882,16.882,0,0,0,6.669,16.113l.3.222.015-.008a11.665,11.665,0,0,1,6.016-1.713l.3.006c3.11.109,5.87,1.756,6.212,3.465.346,1.729-1.039,2.7-3.33,2.694a16.506,16.506,0,0,1-7.518-2.289q-.817-.458-1.578-.973l-.151-.1-.145.095a19.3,19.3,0,0,0-4.3,4.036l-.278.351q-7.951,10.223-7.94,18.089a.45.45,0,0,1-.9,0q0-8.208,8.13-18.641a20.8,20.8,0,0,1,4.595-4.448l.064-.043-.25-.192a17.722,17.722,0,0,1-6.843-16.364l.047-.407c.96-7.678,4.7-14.461,10.335-20.313a50.834,50.834,0,0,1,7.247-6.219c.865-.612,1.669-1.14,2.392-1.583l.359-.217.56-.322A.45.45,0,0,1,112.531,160.541Zm-7.345,44.1a10.5,10.5,0,0,0-5.3,1.288l-.178.1.062.042q.456.3.933.577l.32.183A15.643,15.643,0,0,0,108.1,209c1.8,0,2.65-.59,2.445-1.617C110.3,206.159,107.924,204.74,105.186,204.644Z" transform="translate(-112.127 138.02) rotate(-48)" fill="url(#linear-gradient-36)"/>
    <path id="Swirl-2" data-name="Swirl" d="M232.64,123.687l.553.71-.176.145-.186.163c-.3.267-.639.592-1.009.975a28.877,28.877,0,0,0-3.218,4.039,39.176,39.176,0,0,0-6.1,17.076c-.867,6.936,1.522,14.36,5.841,20.406q.39.546.79,1.059l.461.577.479.024c4.816.3,8.328,2.444,7.187,4.724-.645,1.29-2.193,1.139-4.074-.1a19.523,19.523,0,0,1-3.813-3.508l-.211-.249-.382,0a20.765,20.765,0,0,0-13.959,5.631l-.349.328q-9.953,9.557-7.835,26.673l.074.573-.892.12q-2.418-17.956,8.029-28.016A21.794,21.794,0,0,1,228,168.841l.438-.014-.244-.316q-.146-.192-.291-.389l-.288-.4c-4.441-6.217-6.9-13.858-6-21.041a40.072,40.072,0,0,1,6.24-17.464,29.773,29.773,0,0,1,3.32-4.165c.309-.32.6-.6.863-.846l.3-.272.246-.208ZM230.583,169.8l-.167-.014.034.038a17.744,17.744,0,0,0,3.239,2.9c1.491.985,2.459,1.08,2.773.452C237.131,171.844,234.534,170.182,230.583,169.8Z" transform="translate(-13.396 19.92) rotate(-5)" fill="url(#linear-gradient-37)"/>
    <g id="Speech-bubble" transform="matrix(-0.766, -0.643, 0.643, -0.766, 208.909, 149.527)">
      <g id="Group_6" data-name="Group 6" transform="translate(0 -0.209)">
        <path id="Fill-1-4" data-name="Fill-1" d="M10.026-26.052,48.691-3.48c3.654,2.11,6.617-.13,6.617-5V-20.768c0-4.872-2.963-10.533-6.617-12.641L29.319-44.486,24.256-59.4l-5.063,9.063-9.166-5.645c-3.655-2.11-6.617.13-6.617,5v12.287c0,4.872,2.962,10.532,6.617,12.641" fill-rule="evenodd" fill="url(#linear-gradient-38)"/>
        <path id="Fill-4-3" data-name="Fill-4" d="M17.132-51.527l2.06,1.191L24.255-59.4,20.191-57Z" fill-rule="evenodd" fill="url(#linear-gradient-39)"/>
        <path id="Fill-7-4" data-name="Fill-7" d="M6.617-24.053,45.281-1.481a4.326,4.326,0,0,0,4.133.447L49.451-1l3.615-2.123-.013-.044a4.208,4.208,0,0,1-4.363-.318L10.026-26.052c-3.654-2.11-6.616-7.77-6.616-12.642V-50.98c0-2.368.7-4.107,1.841-5.034L3.235-54.686A5.956,5.956,0,0,0,0-48.981v12.287c0,4.872,2.962,10.532,6.617,12.641" fill-rule="evenodd" fill="url(#linear-gradient-39)"/>
        <path id="Fill-10-2" data-name="Fill-10" d="M36.4-25.694c0-2.05,1.448-2.876,3.235-1.845a7.131,7.131,0,0,1,3.235,5.581c0,2.05-1.448,2.876-3.235,1.844a7.127,7.127,0,0,1-3.235-5.58" fill="#fff" fill-rule="evenodd"/>
        <path id="Fill-12" d="M26.275-31.559c0-2.05,1.448-2.876,3.235-1.844a7.128,7.128,0,0,1,3.235,5.58c0,2.05-1.448,2.876-3.235,1.845a7.13,7.13,0,0,1-3.235-5.581" fill="#fff" fill-rule="evenodd"/>
        <path id="Fill-14" d="M16.387-37.184c0-2.05,1.448-2.876,3.235-1.845a7.131,7.131,0,0,1,3.235,5.581c0,2.05-1.448,2.876-3.235,1.844a7.127,7.127,0,0,1-3.235-5.58" fill="#fff" fill-rule="evenodd"/>
      </g>
    </g>
    <g id="Puzzle-pieces" transform="translate(180.936 57.522)">
      <g id="Puzzle-piece-2" data-name="Puzzle-piece" transform="translate(55.934 21.645) rotate(17)">
        <path id="Sides-2" data-name="Sides" d="M55.808,16.657V20.3H55.79a1.688,1.688,0,0,1-.837,1.238h0l-26.1,15.071L18.43,30.591c-.24-.137-.3-.316-.226-.476h0v-1.3a.3.3,0,0,1,0-.251h0v-1.6a.517.517,0,0,0,.226.231h0l10.42,6.015,26.1-15.07a1.694,1.694,0,0,0,.855-1.48ZM0,16.552l10.417,6.014c.534.309,1.421.111,1.493-.322a3.585,3.585,0,0,1,2.139-2.419,10.633,10.633,0,0,1,8.479-.009c1.872.938,2.568,2.331,2.1,3.606a2.221,2.221,0,0,1-.056,1.7,4.148,4.148,0,0,0-2.044-1.91,10.643,10.643,0,0,0-8.479.009,3.585,3.585,0,0,0-2.139,2.419c-.072.433-.958.631-1.493.323h0L0,19.952ZM4.015,6.2a3.193,3.193,0,0,0,1.6,2.064A8.618,8.618,0,0,0,9.75,9.405c.959.037,1.386.718.71,1.108h0l-.765.442c.018,0,.037,0,.055,0,.959.037,1.386.719.71,1.109h0l-1.217.7a8.325,8.325,0,0,1-3.624-1.107,2.814,2.814,0,0,1-1.6-2.8h0Z" fill-rule="evenodd" fill="url(#linear-gradient-41)"/>
        <path id="Top-2" data-name="Top" d="M22.529,19.817a10.633,10.633,0,0,0-8.479.009,3.585,3.585,0,0,0-2.139,2.418c-.072.434-.958.632-1.493.323L0,16.552l10.458-6.039c.677-.39.25-1.071-.709-1.108A8.615,8.615,0,0,1,5.619,8.264c-2.172-1.35-2.187-3.5-.031-4.842a9.59,9.59,0,0,1,8.9-.084A3.24,3.24,0,0,1,16.29,5.628c.065.552,1.259.792,1.935.4L28.669,0,54.952,15.174a1.711,1.711,0,0,1,0,2.963l-26.1,15.072-10.42-6.017c-.531-.307-.2-.82.548-.861A8.944,8.944,0,0,0,22.9,25.266C25.522,23.754,25.394,21.254,22.529,19.817Z" fill-rule="evenodd" fill="url(#linear-gradient-42)"/>
      </g>
      <g id="Puzzle-piece-3" data-name="Puzzle-piece" transform="translate(0.825 25.585) rotate(-26)">
        <path id="Sides-3" data-name="Sides" d="M57.518,16.657v3.4h0l0,0L28.852,36.607l0,0L18.339,30.541c-.68-.393-1.872-.157-1.931.395a3.177,3.177,0,0,1-1.781,2.284,9.6,9.6,0,0,1-8.9-.116,2.828,2.828,0,0,1-1.606-2.766s-.033-1.35,0-1.555h0V27.609A3.171,3.171,0,0,0,5.73,29.7a9.6,9.6,0,0,0,8.9.117,3.176,3.176,0,0,0,1.781-2.285c.059-.551,1.251-.786,1.931-.395h0L28.85,33.209h0ZM0,16.554,10.524,22.63c.682.393.261,1.072-.7,1.107-.024,0-.047,0-.071,0h0l.767.443c.682.393.261,1.072-.7,1.106-.177.006-.351.018-.525.033h0L0,19.952ZM18.086,6.436a.852.852,0,0,0,.785.407,9.027,9.027,0,0,1,3.938,1.079c1.612.93,2.193,2.226,1.755,3.42a2.221,2.221,0,0,1-.057,1.7,3.9,3.9,0,0,0-1.7-1.725,9.058,9.058,0,0,0-3.937-1.079c-.573-.034-.9-.344-.785-.626h0V8.286a.291.291,0,0,1,0-.224h0ZM53.392,6.3V7.421a2.145,2.145,0,0,1,0,.714h0v.839a2.782,2.782,0,0,1-1.579,2.772,8.215,8.215,0,0,1-3.594,1.092h0L47,12.134c-.681-.394-.26-1.072.7-1.106.024,0,.047,0,.071,0h0L47,10.579c-.681-.393-.26-1.072.7-1.106a8.524,8.524,0,0,0,4.119-1.125A3.14,3.14,0,0,0,53.392,6.3Z" fill-rule="evenodd" fill="url(#linear-gradient-43)"/>
        <path id="top-3" data-name="top" d="M16.408,27.536c.06-.551,1.251-.786,1.931-.395l10.511,6.068h0L57.519,16.657,47,10.579c-.681-.393-.26-1.072.7-1.106a8.511,8.511,0,0,0,4.119-1.125c2.158-1.342,2.149-3.491-.021-4.842a9.594,9.594,0,0,0-8.9-.117,3.175,3.175,0,0,0-1.782,2.285c-.058.551-1.251.786-1.931.395L28.672,0h0L18.315,5.98c-.528.3-.189.819.556.863a9.023,9.023,0,0,1,3.938,1.079c2.637,1.522,2.536,4.023-.314,5.449a10.643,10.643,0,0,1-8.479-.039A3.658,3.658,0,0,1,11.851,10.9c-.078-.434-.966-.636-1.5-.328L0,16.554,10.525,22.63c.681.394.26,1.073-.7,1.107a8.524,8.524,0,0,0-4.119,1.125C3.55,26.2,3.56,28.353,5.729,29.7a9.6,9.6,0,0,0,8.9.117A3.176,3.176,0,0,0,16.408,27.536Z" fill-rule="evenodd" fill="url(#linear-gradient-44)"/>
      </g>
    </g>
    <g id="Profile-card-2" data-name="Profile-card" transform="translate(109.422 131.095) rotate(-147)">
      <path id="Fill-5-4" data-name="Fill-5" d="M41.6-34.456c.471.273.468.711-.005.986L33.2-28.623a1.875,1.875,0,0,1-1.7,0,.521.521,0,0,1,.005-.986L39.9-34.456a1.873,1.873,0,0,1,1.7,0ZM40.624-39.6a1.84,1.84,0,0,1,1.667,0,.51.51,0,0,1,0,.965l-18,10.391a1.836,1.836,0,0,1-1.667,0,.51.51,0,0,1,.005-.965l18-10.391ZM60.107-17.909c-4.882,2.819-12.778,2.819-17.629,0a6.936,6.936,0,0,1-3.457-3.916c-.038-.152-.076-.308-.1-.458-.357-2.085.849-4.245,3.612-5.84A18.574,18.574,0,0,1,52.625-30.2c.262.012.533.034.79.059a16.713,16.713,0,0,1,6.755,2.013c4.851,2.819,4.825,7.393-.062,10.215ZM90.4-23.951a.825.825,0,0,0,.009-1.562L44.184-52.376a2.971,2.971,0,0,0-2.7,0L.562-28.748a.827.827,0,0,0-.009,1.563L46.778-.323a2.977,2.977,0,0,0,2.7,0Z" fill-rule="evenodd" fill="url(#linear-gradient-45)"/>
      <path id="Fill-1-5" data-name="Fill-1" d="M41.595-33.47c.474-.274.477-.712.005-.986a1.873,1.873,0,0,0-1.7,0L31.5-29.609a.521.521,0,0,0-.005.985,1.873,1.873,0,0,0,1.7,0Z" fill-rule="evenodd" fill="url(#linear-gradient-46)"/>
      <path id="Fill-3-4" data-name="Fill-3" d="M42.285-38.631a.51.51,0,0,0,.005-.965,1.838,1.838,0,0,0-1.667,0l-18,10.39a.511.511,0,0,0-.005.966,1.84,1.84,0,0,0,1.667,0Z" fill-rule="evenodd" opacity="0.239" fill="url(#linear-gradient-47)"/>
      <path id="Fill-7-5" data-name="Fill-7" d="M55.162-18.7c1.839.1,2.659-1.152,1.831-2.786a6.34,6.34,0,0,0-4.825-3.131c-1.834-.1-2.654,1.152-1.828,2.782A6.342,6.342,0,0,0,55.162-18.7" transform="translate(20.452 25.736) rotate(-33)" fill="#5ac6e7" fill-rule="evenodd"/>
      <path id="Fill-9-4" data-name="Fill-9" d="M50.8-23.319a6.34,6.34,0,0,1,5.752,0c1.584.92,1.576,2.413-.018,3.334a6.342,6.342,0,0,1-5.752,0c-1.58-.918-1.571-2.411.018-3.329m9.308,5.409c4.887-2.822,4.913-7.395.062-10.214a16.713,16.713,0,0,0-6.755-2.013c-.257-.025-.528-.047-.79-.059,1,2.149.022,4.556-2.909,6.247a17.216,17.216,0,0,1-10.8,1.665c.025.149.063.306.1.458a6.938,6.938,0,0,0,3.457,3.916c4.851,2.819,12.747,2.819,17.629,0" fill="#fff" fill-rule="evenodd"/>
      <path id="Fill-11-2" data-name="Fill-11" d="M48.028-22.229c3.379.178,5.511-1.307,5.843-3.655a18.575,18.575,0,0,0-9.594-3.76c-3.185-.167-5.373.988-6.209,2.931a17.214,17.214,0,0,0,9.961,4.484" transform="translate(21.542 20.852) rotate(-33)" fill="#5ac6e7" fill-rule="evenodd"/>
    </g>
  </g>
</svg>
