<svg xmlns="http://www.w3.org/2000/svg" xmlns:xlink="http://www.w3.org/1999/xlink" width="140" height="140" viewBox="0 0 140 140">
  <defs>
    <filter id="Oval" x="0" y="0" width="140" height="140" filterUnits="userSpaceOnUse">
      <feOffset dy="10" input="SourceAlpha"/>
      <feGaussianBlur stdDeviation="10" result="blur"/>
      <feFlood flood-color="#15264c" flood-opacity="0.082"/>
      <feComposite operator="in" in2="blur"/>
      <feComposite in="SourceGraphic"/>
    </filter>
    <linearGradient id="linear-gradient" x1="1.028" y1="0.95" x2="0.048" gradientUnits="objectBoundingBox">
      <stop offset="0" stop-color="#2cb17a"/>
      <stop offset="1" stop-color="#17abd8"/>
    </linearGradient>
  </defs>
  <g id="Icon" transform="translate(30 20)">
    <g transform="matrix(1, 0, 0, 1, -30, -20)" filter="url(#Oval)">
      <circle id="Oval-2" data-name="Oval" cx="40" cy="40" r="40" transform="translate(30 20)" fill="#fff"/>
    </g>
    <path id="Easy_sharing" data-name="Easy sharing" d="M-12.154,4.389V1.7A1.874,1.874,0,0,1-9,.5L-.539,8.263a1.589,1.589,0,0,1,0,2.386L-9,18.415a1.869,1.869,0,0,1-3.152-1.184V14.371c-9.218,0-15.67,2.707-20.279,8.629C-30.589,14.54-25.058,6.081-12.154,4.389Z" transform="translate(55.944 28.406)" fill="url(#linear-gradient)"/>
  </g>
</svg>
