<svg xmlns="http://www.w3.org/2000/svg" xmlns:xlink="http://www.w3.org/1999/xlink" width="140" height="140" viewBox="0 0 140 140">
  <defs>
    <filter id="Oval" x="0" y="0" width="140" height="140" filterUnits="userSpaceOnUse">
      <feOffset dy="10" input="SourceAlpha"/>
      <feGaussianBlur stdDeviation="10" result="blur"/>
      <feFlood flood-color="#15264c" flood-opacity="0.082"/>
      <feComposite operator="in" in2="blur"/>
      <feComposite in="SourceGraphic"/>
    </filter>
    <linearGradient id="linear-gradient" x1="0.004" x2="1" y2="1" gradientUnits="objectBoundingBox">
      <stop offset="0" stop-color="#17abd8"/>
      <stop offset="1" stop-color="#2cb17a"/>
    </linearGradient>
  </defs>
  <g id="Icon" transform="translate(30 20)">
    <g transform="matrix(1, 0, 0, 1, -30, -20)" filter="url(#Oval)">
      <circle id="Oval-2" data-name="Oval" cx="40" cy="40" r="40" transform="translate(30 20)" fill="#fff"/>
    </g>
    <path id="Collaborate" d="M30.119,17V14.585a6.83,6.83,0,0,0-.93-3.435,9.866,9.866,0,0,1,5.768.72,3.017,3.017,0,0,1,1.8,2.775V15.5A1.492,1.492,0,0,1,35.282,17ZM11.262,17A1.448,1.448,0,0,1,9.73,15.666v-.813a3.965,3.965,0,0,1,2.7-3.641A18.023,18.023,0,0,1,18.919,10a18.329,18.329,0,0,1,6.494,1.2,3.992,3.992,0,0,1,2.7,3.641v.826A1.447,1.447,0,0,1,26.577,17ZM1.475,17A1.492,1.492,0,0,1,0,15.5v-.855A3.017,3.017,0,0,1,1.8,11.87,10.1,10.1,0,0,1,5.9,11a10.131,10.131,0,0,1,1.667.15,6.838,6.838,0,0,0-.929,3.435V17ZM27.027,7a3.253,3.253,0,0,1,6.486,0,3.253,3.253,0,0,1-6.486,0ZM3.244,7A3.138,3.138,0,0,1,6.486,4,3.138,3.138,0,0,1,9.73,7a3.138,3.138,0,0,1-3.244,3A3.137,3.137,0,0,1,3.244,7ZM14.054,4.5a4.327,4.327,0,1,1,8.648,0,4.327,4.327,0,1,1-8.648,0Z" transform="translate(21.99 32)" fill="url(#linear-gradient)"/>
  </g>
</svg>
