<svg xmlns="http://www.w3.org/2000/svg" width="187.49" height="33.445" viewBox="0 0 187.49 33.445">
  <g id="Amaforge_logo" data-name="Amaforge logo" transform="translate(-0.058 -0.105)">
    <path id="Combined_Shape" data-name="Combined Shape" d="M8.942,17.627l29.437.07L20.44,33.445ZM4.19,22.385,7.31,18.42l6.248,8.6L9.48,28.363ZM0,17.608l5.65.013L3,21Zm3-5.155L5.65,15.825,0,15.84ZM20.44,0,38.38,15.747l-29.437.07ZM4.19,11.06,9.48,5.082l4.078,1.35-6.248,8.6Z" transform="translate(0.058 0.105)" fill="#5ac6e7"/>
    <path id="Combined_Shape-2" data-name="Combined Shape" d="M74.914,21.815a4.394,4.394,0,0,1-1.457-3.5V4.75a4.372,4.372,0,0,1,1.44-3.5A6.6,6.6,0,0,1,79.2,0a6.513,6.513,0,0,1,4.323,1.25,4.386,4.386,0,0,1,1.46,3.5V18.315a4.358,4.358,0,0,1-1.443,3.5,6.613,6.613,0,0,1-4.3,1.25A6.511,6.511,0,0,1,74.914,21.815Zm1.765-19.1a2.464,2.464,0,0,0-.85,2.035V18.315c0,1.8,1.142,2.711,3.393,2.713h.007a3.74,3.74,0,0,0,2.714-.836,2.546,2.546,0,0,0,.668-1.876V4.75a2.46,2.46,0,0,0-.847-2.035,5.11,5.11,0,0,0-5.086,0Zm37.206,20.347q-4.919,0-4.918-4.75V4.75a4.426,4.426,0,0,1,1.39-3.5,7.638,7.638,0,0,1,8.375,0,4.42,4.42,0,0,1,1.425,3.5V6.615h-2.374V4.75q0-2.714-3.22-2.713T111.34,4.75V18.315a3.248,3.248,0,0,0,.543,2,2.358,2.358,0,0,0,1.985.713,3.875,3.875,0,0,0,2.677-1.153,3.256,3.256,0,0,0,1.249-2.25v-4.25l-3.817.023V11.363h6.172v11.19h-1.018l-.882-2.17a5.585,5.585,0,0,1-1.865,1.95,4.588,4.588,0,0,1-2.482.73Zm-10.047-.506h-2.611l-3.965-7.8h-2.75l0,7.792H92.14V.512h5.123a5.808,5.808,0,0,1,4.018,1.25,4.516,4.516,0,0,1,1.372,3.5v4.75c0,2.294-1,3.777-2.983,4.407l4.169,8.136h0ZM94.5,12.717h2.756c2.005,0,3.023-.912,3.024-2.71V5.257a2.58,2.58,0,0,0-.779-2,3.242,3.242,0,0,0-2.25-.713H94.5ZM42.044,22.553H39.673L44.658.512h3.56L53.2,22.551H50.83l-1.155-5.085H43.2l-1.155,5.085h0Zm4.377-19.4L43.64,15.432H49.2L46.42,3.157h0ZM2.372,22.553H0L4.985.512h3.56L13.53,22.551H11.155L10,17.467H3.525L2.372,22.552h0Zm4.376-19.4L3.967,15.432h5.56L6.747,3.157h0Zm120.57,19.4V.512h9.65V2.547h-7.29v7.8h5.936v2.035h-5.936v8.141h7.64v2.029Zm-68.3,0V.512h9.325V2.547H61.385v7.8h5.6v2.035h-5.6v10.17Zm-27.343,0V4.3L27.7,19.155H25.5L21.533,4.3V22.552H19.157V.512h3.56L26.585,15.06,30.482.512h3.563v22.04Z" transform="translate(50.23 5.295)" fill="#fff"/>
  </g>
</svg>
