<svg xmlns="http://www.w3.org/2000/svg" xmlns:xlink="http://www.w3.org/1999/xlink" width="1641.345" height="1238.731" viewBox="0 0 1641.345 1238.731">
  <defs>
    <linearGradient id="linear-gradient" x1="0.004" x2="1" y2="1" gradientUnits="objectBoundingBox">
      <stop offset="0" stop-color="#17abd8"/>
      <stop offset="1" stop-color="#2cb17a"/>
    </linearGradient>
    <linearGradient id="linear-gradient-2" x1="0.004" y1="1" x2="1" gradientUnits="objectBoundingBox">
      <stop offset="0" stop-color="#15264c"/>
      <stop offset="1" stop-color="#2f4e83"/>
    </linearGradient>
    <linearGradient id="linear-gradient-3" x1="0.004" y1="0" y2="1" xlink:href="#linear-gradient-2"/>
    <linearGradient id="linear-gradient-4" x1="0.004" y1="1" x2="1" gradientUnits="objectBoundingBox">
      <stop offset="0" stop-color="#2f4e83"/>
      <stop offset="1" stop-color="#15264c"/>
    </linearGradient>
  </defs>
  <g id="Wavy_background_full" data-name="Wavy background full" transform="translate(0 -5.269)">
    <path id="bg_wave" data-name="bg wave" d="M0,0S422,99,832,51s808-8,808-8V1201.219S1273,1103,821,1196s-821,5.219-821,5.219Z" transform="translate(1640.345 1244) rotate(180)" opacity="0.206" fill="url(#linear-gradient)"/>
    <path id="basse" d="M.345-13.442s430,34,831-18,809,0,809,0L1641-1106.776s-366-64.45-820-12.438S0-1106.776,0-1106.776Z" transform="translate(0 1190.442)" fill="url(#linear-gradient-2)"/>
    <path id="wave2" d="M0,10.1S417,4.023,858,77.018,1640,0,1640,0V563.2s-375,12.936-821-67.182S0,563.2,0,563.2Z" transform="translate(1641 1071.037) rotate(180)" opacity="0.175" fill="url(#linear-gradient-3)"/>
    <path id="wave_1" data-name="wave 1" d="M.345-13.442s430,34,831-18,809,0,809,0l.655-1003s-271-63-820,135-821-135-821-135Z" transform="translate(0.345 1190.442)" opacity="0.151" fill="url(#linear-gradient-4)"/>
  </g>
</svg>
