<svg xmlns="http://www.w3.org/2000/svg" xmlns:xlink="http://www.w3.org/1999/xlink" width="140" height="140" viewBox="0 0 140 140">
  <defs>
    <filter id="Oval" x="0" y="0" width="140" height="140" filterUnits="userSpaceOnUse">
      <feOffset dy="10" input="SourceAlpha"/>
      <feGaussianBlur stdDeviation="10" result="blur"/>
      <feFlood flood-color="#15264c" flood-opacity="0.082"/>
      <feComposite operator="in" in2="blur"/>
      <feComposite in="SourceGraphic"/>
    </filter>
    <linearGradient id="linear-gradient" x1="0.004" x2="1" y2="1" gradientUnits="objectBoundingBox">
      <stop offset="0" stop-color="#17abd8"/>
      <stop offset="1" stop-color="#2cb17a"/>
    </linearGradient>
  </defs>
  <g id="Icon" transform="translate(30 20)">
    <g transform="matrix(1, 0, 0, 1, -30, -20)" filter="url(#Oval)">
      <circle id="Oval-2" data-name="Oval" cx="40" cy="40" r="40" transform="translate(30 20)" fill="#fff"/>
    </g>
    <path id="Bookmark" d="M17.606,0H2.934A2.818,2.818,0,0,0,0,2.667V25.2a1,1,0,0,0,1.363.932l8.907-3.469,8.907,3.469a1,1,0,0,0,1.363-.932V2.667A2.818,2.818,0,0,0,17.606,0Z" transform="translate(29.557 26.333)" fill="url(#linear-gradient)"/>
  </g>
</svg>
